<svg xmlns="http://www.w3.org/2000/svg" width="266" height="266" style="shape-rendering:geometricPrecision;text-rendering:geometricPrecision;image-rendering:optimizeQuality;fill-rule:evenodd;clip-rule:evenodd"><path fill="#bde4e5" d="M48.5 4.5c56.001-.167 112.001 0 168 .5 23.167 5.833 37.667 20.333 43.5 43.5.667 56 .667 112 0 168-5.833 23.167-20.333 37.667-43.5 43.5-56 .667-112 .667-168 0-23.833-5.167-38.333-19.667-43.5-43.5-.667-56-.667-112 0-168 6.05-23.216 20.55-37.883 43.5-44Z" style="opacity:.998"/><path fill="#060707" d="M95.5 87.5c12.374-1.488 24.04.678 35 6.5 2.346 1.013 4.013 2.68 5 5-1.125 3.11-2.958 5.61-5.5 7.5-15.766-10.386-31.6-10.553-47.5-.5-16.434 15.985-18.268 33.485-5.5 52.5 10.02 11.34 22.52 15.507 37.5 12.5 5.175-1.387 9.842-3.72 14-7 1.284-.684 2.451-.517 3.5.5 2.164 2.311 3.164 4.978 3 8-11.712 8.886-24.879 12.052-39.5 9.5-26.172-8.158-38.672-25.991-37.5-53.5 4.732-20.894 17.232-34.56 37.5-41Z" style="opacity:1"/><path fill="#090b0b" d="M152.5 88.5c2.948-.277 5.781.056 8.5 1 .5 26.998.667 53.998.5 81 15.67-.167 31.337 0 47 .5 1.333 3.333 1.333 6.667 0 10-19.24.826-38.407.659-57.5-.5-.667-30-.667-60 0-90 .717-.544 1.217-1.21 1.5-2Z" style="opacity:1"/></svg>